HIERARCHY
ROOT Hips
{
    OFFSET 0.000000 0.000000 0.000000
    CHANNELS 6 Xposition Yposition Zposition Zrotation Xrotation Yrotation
    JOINT Spine
    {
        OFFSET -0.000000 7.925200 0.000000
        CHANNELS 3 Zrotation Xrotation Yrotation
        JOINT Spine1
        {
            OFFSET -0.000000 23.364719 0.000000
            CHANNELS 3 Zrotation Xrotation Yrotation
            JOINT Neck
            {
                OFFSET -0.000000 23.268766 2.115342
                CHANNELS 3 Zrotation Xrotation Yrotation
                JOINT Head
                {
                    OFFSET -0.000000 13.530829 -1.932976
                    CHANNELS 3 Zrotation Xrotation Yrotation
                    End Site
                    {
                        OFFSET -0.000000 24.162195 0.000000
                    }
                }
            }
            JOINT LeftShoulder
            {
                OFFSET 3.858291 22.792089 -0.033814
                CHANNELS 3 Zrotation Xrotation Yrotation
                JOINT LeftArm
                {
                    OFFSET 7.057024 0.000000 0.000000
                    CHANNELS 3 Zrotation Xrotation Yrotation
                    JOINT LeftForeArm
                    {
                        OFFSET 34.734173 0.000000 0.000000
                        CHANNELS 3 Zrotation Xrotation Yrotation
                        JOINT LeftHand
                        {
                            OFFSET 23.943203 0.000000 0.000000
                            CHANNELS 3 Zrotation Xrotation Yrotation
                            End Site
                            {
                                OFFSET 14.497317 0.000000 0.000000
                            }
                        }
                    }
                }
            }
            JOINT RightShoulder
            {
                OFFSET -3.868823 22.792089 -0.033814
                CHANNELS 3 Zrotation Xrotation Yrotation
                JOINT RightArm
                {
                    OFFSET -7.057024 0.000000 0.000000
                    CHANNELS 3 Zrotation Xrotation Yrotation
                    JOINT RightForeArm
                    {
                        OFFSET -34.734173 0.000000 0.000000
                        CHANNELS 3 Zrotation Xrotation Yrotation
                        JOINT RightHand
                        {
                            OFFSET -23.943203 0.000000 0.000000
                            CHANNELS 3 Zrotation Xrotation Yrotation
                            End Site
                            {
                                OFFSET -14.497317 0.000000 0.000000
                            }
                        }
                    }
                }
            }
        }
    }
    JOINT LeftUpLeg
    {
        OFFSET 9.664878 0.000000 0.000000
        CHANNELS 3 Zrotation Xrotation Yrotation
        JOINT LeftLeg
        {
            OFFSET -0.000000 -38.728706 0.000000
            CHANNELS 3 Zrotation Xrotation Yrotation
            JOINT LeftFoot
            {
                OFFSET -0.000000 -40.242161 0.000000
                CHANNELS 3 Zrotation Xrotation Yrotation
                JOINT LeftToeBase
                {
                    OFFSET -0.000000 -6.282171 14.497317
                    CHANNELS 3 Zrotation Xrotation Yrotation
                    End Site
                    {
                        OFFSET -0.000000 0.000000 3.865951
                    }
                }
            }
        }
    }
    JOINT RightUpLeg
    {
        OFFSET -9.664878 0.000000 0.000000
        CHANNELS 3 Zrotation Xrotation Yrotation
        JOINT RightLeg
        {
            OFFSET -0.000000 -38.728706 0.000000
            CHANNELS 3 Zrotation Xrotation Yrotation
            JOINT RightFoot
            {
                OFFSET -0.000000 -40.242161 0.000000
                CHANNELS 3 Zrotation Xrotation Yrotation
                JOINT RightToeBase
                {
                    OFFSET -0.000000 -6.282171 14.497317
                    CHANNELS 3 Zrotation Xrotation Yrotation
                    End Site
                    {
                        OFFSET -0.000000 0.000000 3.865951
                    }
                }
            }
        }
    }
}
MOTION
Frames:    10
Frame Time:    0.008333
126.209763    88.938011    1.635896    -2.978309    -1.078088    86.307014    -0.016619    -3.999621    0.379171    1.535204    0.651487    0.371116    -3.593811    17.232111    5.896254    -1.886078    -2.197058    5.799357    15.279882    -1.263307    2.935214    -12.538130    6.841480    -7.407905    7.441920    -6.089526    -9.060925    -3.494466    -5.340747    -5.307631    -14.923738    0.148553    5.568497    14.196225    3.760795    7.921165    -2.767519    -1.680946    3.274970    4.794955    -1.500342    2.424712    1.945204    3.572559    0.089385    -2.032467    -0.853636    0.339582    -0.134592    -4.692996    13.894655    0.000000    0.000000    0.000000    0.440998    0.248458    0.257987    -1.154471    4.656865    -0.164858    2.029927    -5.272771    -14.129388    0.000000    0.000000    0.000000    
126.218796    88.939545    1.634185    -2.952775    -1.081738    86.296349    0.007511    -3.964249    0.377297    1.517929    0.611290    0.368952    -3.547402    17.235075    5.898836    -1.941293    -2.188251    5.793633    15.318854    -1.265663    2.937608    -12.491877    6.919536    -7.425437    7.441712    -6.104816    -8.998772    -3.548942    -5.359513    -5.246024    -14.897154    0.135247    5.558955    14.161608    3.766537    7.930189    -2.770347    -1.656150    3.267560    4.802071    -1.474868    2.440275    1.942403    3.606567    0.100557    -2.026303    -0.856646    0.331269    -0.129470    -4.685740    13.900025    0.000000    0.000000    0.000000    0.448328    0.275681    0.237809    -1.173816    4.660836    -0.123575    2.047761    -5.267546    -14.133156    0.000000    0.000000    0.000000    
126.220993    88.941231    1.630508    -2.946173    -1.078131    86.293457    0.012920    -3.949602    0.377352    1.515336    0.590524    0.369203    -3.555878    17.236534    5.891280    -1.909052    -2.206199    5.790537    15.341939    -1.274793    2.939219    -12.476373    6.953690    -7.436133    7.441636    -6.098662    -8.966512    -3.580010    -5.353993    -5.248177    -14.898336    0.124314    5.553446    14.151765    3.782776    7.929602    -2.769110    -1.654686    3.261180    4.801258    -1.473439    2.444059    1.935064    3.609796    0.105877    -2.029797    -0.845757    0.335457    -0.127739    -4.683916    13.903463    0.000000    0.000000    0.000000    0.441547    0.280571    0.246053    -1.167036    4.667472    -0.163792    2.054675    -5.266100    -14.113509    0.000000    0.000000    0.000000    
126.226700    88.943413    1.629036    -2.935491    -1.075324    86.289680    -0.005042    -3.946807    0.372163    1.557893    0.589616    0.364274    -3.576321    17.256166    5.892836    -1.915701    -2.247184    5.789543    15.329757    -1.283807    2.939581    -12.443383    6.974249    -7.434518    7.436045    -6.095275    -8.943837    -3.631691    -5.349671    -5.263107    -14.929719    0.117378    5.558091    14.150690    3.776571    7.932901    -2.764966    -1.655849    3.255134    4.762892    -1.476404    2.426922    1.925411    3.614992    0.152636    -2.022211    -0.825500    0.324702    -0.138204    -4.691594    13.869483    0.000000    0.000000    0.000000    0.442538    0.291507    0.217655    -1.179421    4.668622    -0.129730    2.046404    -5.260809    -14.124333    0.000000    0.000000    0.000000    
126.227829    88.944283    1.625270    -2.933562    -1.064019    86.286522    0.002271    -3.935782    0.361481    1.545599    0.561176    0.353939    -3.590997    17.285149    5.902532    -1.908539    -2.295510    5.798873    15.335911    -1.281583    2.936361    -12.419965    6.910881    -7.418479    7.429373    -6.040783    -8.921364    -3.700051    -5.293253    -5.285802    -14.942519    0.121488    5.590827    14.161845    3.767498    7.923671    -2.774273    -1.640608    3.245743    4.742001    -1.461019    2.440380    1.908807    3.609435    0.164501    -2.018579    -0.814797    0.301789    -0.131276    -4.678101    13.891762    0.000000    0.000000    0.000000    0.428581    0.286725    0.198835    -1.180144    4.681799    -0.126632    2.059227    -5.271157    -14.101276    0.000000    0.000000    0.000000    
126.231857    88.944778    1.625183    -2.922356    -1.068835    86.292976    0.016218    -3.942143    0.366133    1.507311    0.591277    0.357936    -3.474776    17.222088    5.898056    -1.984510    -2.239934    5.786099    15.435815    -1.274698    2.932132    -12.431539    6.877874    -7.446464    7.405175    -6.020765    -8.893757    -3.752255    -5.274744    -5.277754    -14.871468    0.094436    5.541605    14.102521    3.807337    7.939157    -2.774843    -1.632478    3.239160    4.712709    -1.453309    2.449318    1.915467    3.617406    0.184843    -2.024342    -0.808504    0.289072    -0.125665    -4.674623    13.874029    0.000000    0.000000    0.000000    0.440567    0.299173    0.180029    -1.190366    4.680184    -0.150711    2.066868    -5.261257    -14.077967    0.000000    0.000000    0.000000    
126.235748    88.944649    1.621339    -2.908832    -1.061686    86.294502    -0.000045    -3.929271    0.361401    1.542894    0.580096    0.353623    -3.473925    17.216888    5.872216    -2.018994    -2.233921    5.753934    15.421070    -1.288204    2.911102    -12.395157    6.846701    -7.438743    7.376799    -5.983170    -8.839573    -3.761570    -5.240440    -5.336143    -14.906351    0.096626    5.536613    14.062751    4.202873    7.916492    -2.809236    -1.840267    3.312724    4.637442    -1.663046    2.372743    1.871153    3.558817    0.220425    -1.956148    -0.663870    0.260867    -0.156592    -4.744544    13.869153    0.000000    0.000000    0.000000    0.433788    0.314171    0.142192    -1.201724    4.680690    -0.102033    2.065279    -5.265839    -14.091036    0.000000    0.000000    0.000000    
126.239685    88.943932    1.621181    -2.895213    -1.064914    86.298279    -0.005909    -3.904182    0.364301    1.552282    0.544979    0.357265    -3.410907    17.247610    5.864887    -2.079122    -2.256998    5.735774    15.456397    -1.284433    2.878849    -12.384298    6.809530    -7.441771    7.362804    -5.946496    -8.786660    -3.749579    -5.202012    -5.542622    -14.871724    0.095572    5.541288    14.032305    4.243956    7.881350    -2.820443    -1.831051    3.325358    4.572881    -1.653113    2.408155    1.901191    3.625455    0.234844    -2.011281    -0.759403    0.220305    -0.124194    -4.699343    13.889835    0.000000    0.000000    0.000000    0.438920    0.330574    0.151999    -1.206423    4.682062    -0.120632    2.070447    -5.270837    -14.083710    0.000000    0.000000    0.000000    
126.244041    88.943336    1.619939    -2.885825    -1.061238    86.303062    -0.023276    -3.903953    0.356935    1.582530    0.542013    0.350194    -3.449021    17.217510    5.852429    -2.018994    -2.200253    5.734137    15.453585    -1.274754    2.862157    -12.351623    6.765397    -7.448697    7.338742    -5.919673    -8.727067    -3.762703    -5.183833    -5.432096    -14.877129    0.101005    5.548398    14.011260    4.221972    7.883369    -2.823937    -1.805245    3.287211    4.685338    -1.623672    2.459557    1.868131    3.571366    0.273647    -1.960680    -0.635542    0.191540    -0.127635    -4.751252    13.876935    0.000000    0.000000    0.000000    0.431334    0.344161    0.154453    -1.203339    4.679833    -0.113116    2.059857    -5.275402    -14.093125    0.000000    0.000000    0.000000    
126.247276    88.942871    1.617949    -2.869512    -1.062621    86.312759    0.004810    -3.897008    0.341088    1.536771    0.554231    0.333702    -3.418195    17.196442    5.849588    -2.035253    -2.194636    5.729626    15.504881    -1.282994    2.889669    -12.337261    6.734863    -7.470130    7.343143    -5.878294    -8.680061    -3.679183    -5.150244    -5.393981    -14.860325    0.075637    5.548796    14.007565    4.290565    7.888169    -2.846950    -1.844475    3.291640    4.709916    -1.665303    2.369447    1.863693    3.575261    0.264575    -1.954740    -0.606399    0.193361    -0.140583    -4.778811    13.886079    0.000000    0.000000    0.000000    0.434826    0.360855    0.150592    -1.209473    4.683148    -0.146279    2.085171    -5.283615    -14.075692    0.000000    0.000000    0.000000    
